<svg xmlns="http://www.w3.org/2000/svg" xmlns:xlink="http://www.w3.org/1999/xlink" width="1920" zoomAndPan="magnify" viewBox="0 0 1440 342.749987" height="457" preserveAspectRatio="xMidYMid meet" version="1.0"><defs><g/><clipPath id="8847f52f81"><path d="M 0.523438 70 L 138 70 L 138 289 L 0.523438 289 Z M 0.523438 70 " clip-rule="nonzero"/></clipPath></defs><g clip-path="url(#8847f52f81)"><g fill="#5d3e1d" fill-opacity="1"><g transform="translate(0.524809, 236.677497)"><g><path d="M 115.164062 -162.917969 C 108.46875 -160.972656 101.769531 -152.761719 97.015625 -148.007812 C 93.992188 -145.199219 90.964844 -142.175781 88.15625 -138.933594 C 86.210938 -136.773438 81.242188 -132.449219 80.808594 -129.425781 C 81.027344 -129.210938 81.027344 -129.210938 81.242188 -129.210938 L 78.21875 -125.320312 C 78 -125.105469 79.945312 -128.34375 80.160156 -128.5625 C 79.082031 -128.128906 77.351562 -124.238281 77.351562 -124.238281 C 71.304688 -116.460938 64.605469 -109.332031 58.988281 -101.121094 C 52.722656 -91.828125 47.535156 -82.324219 42.566406 -72.382812 C 45.160156 -82.324219 48.832031 -91.828125 52.503906 -101.335938 L 47.320312 -90.316406 L 49.480469 -95.285156 C 42.351562 -82.105469 36.300781 -68.277344 31.976562 -54.015625 C 40.621094 -83.1875 52.722656 -113.652344 71.734375 -144.984375 C 71.085938 -143.6875 70.4375 -141.957031 70.65625 -141.957031 C 71.519531 -141.742188 75.839844 -150.167969 75.191406 -150.382812 L 74.542969 -149.953125 C 75.839844 -152.328125 76.488281 -153.625 75.191406 -157.082031 C 73.894531 -160.539062 70.65625 -166.589844 66.117188 -164.644531 C 63.308594 -163.566406 60.933594 -158.378906 59.851562 -156.21875 C 59.203125 -155.136719 58.988281 -153.410156 58.339844 -152.546875 C 57.472656 -151.25 55.960938 -150.601562 54.664062 -148.871094 C 51.855469 -144.550781 49.914062 -139.363281 47.96875 -134.613281 C 46.886719 -132.019531 35.003906 -106.304688 35.433594 -106.089844 C 35.867188 -106.304688 36.082031 -106.738281 36.300781 -107.171875 C 35.652344 -105.226562 34.789062 -103.28125 33.921875 -101.335938 C 33.707031 -101.554688 34.570312 -103.066406 34.140625 -103.066406 C 32.195312 -103.496094 25.710938 -85.5625 25.28125 -83.835938 C 24.414062 -79.730469 23.335938 -76.054688 21.605469 -71.953125 C 20.527344 -69.359375 19.445312 -66.765625 18.582031 -64.171875 C 18.582031 -63.957031 17.5 -58.554688 18.367188 -60.5 C 18.367188 -59.851562 18.148438 -59.417969 17.933594 -58.769531 C 17.933594 -58.988281 17.933594 -59.417969 17.71875 -59.636719 C 17.285156 -59.417969 15.988281 -52.9375 15.558594 -52.074219 C 14.042969 -48.832031 12.316406 -45.589844 11.019531 -42.132812 C 7.777344 -33.058594 6.265625 -23.769531 4.105469 -14.261719 C 2.59375 -7.128906 -2.160156 4.320312 1.082031 11.453125 C 4.105469 18.148438 14.476562 17.71875 19.230469 12.75 C 19.230469 13.179688 19.445312 13.394531 19.664062 13.613281 C 21.824219 -2.59375 28.089844 -19.015625 34.570312 -34.140625 C 35.867188 -31.761719 35.21875 -30.683594 36.082031 -27.871094 C 37.164062 -23.550781 39.972656 -19.878906 41.917969 -15.988281 C 42.78125 -14.261719 52.503906 4.753906 52.9375 4.539062 C 53.152344 4.105469 52.9375 3.671875 52.9375 3.457031 C 53.585938 4.96875 54.449219 6.265625 55.3125 7.777344 C 55.097656 7.777344 54.664062 6.699219 54.234375 6.914062 C 52.503906 8.210938 61.578125 20.957031 62.660156 21.824219 C 65.035156 24.632812 67.199219 27.226562 69.140625 30.035156 C 70.4375 31.761719 71.519531 33.492188 73.03125 34.789062 C 73.246094 35.003906 75.839844 36.949219 75.410156 36.082031 C 75.625 36.300781 76.054688 36.515625 76.273438 36.949219 C 76.273438 36.949219 76.054688 36.730469 75.839844 36.730469 C 75.625 37.378906 85.996094 47.101562 86.859375 47.75 C 90.75 50.128906 95.070312 51.640625 99.609375 51.207031 C 111.925781 50.128906 121.429688 39.539062 128.34375 30.683594 C 130.074219 28.519531 130.9375 26.792969 130.722656 24.414062 C 130.289062 18.582031 128.128906 21.390625 126.183594 23.550781 C 122.511719 27.441406 115.597656 31.761719 109.980469 31.761719 C 107.820312 31.976562 105.65625 31.113281 103.496094 30.25 C 102.632812 29.816406 95.070312 25.28125 95.070312 25.496094 C 95.285156 25.929688 95.503906 26.578125 95.933594 27.007812 C 92.261719 23.984375 88.371094 18.582031 84.914062 14.691406 L 70.007812 -2.375 C 68.0625 -4.539062 54.234375 -24.199219 48.183594 -34.140625 L 55.097656 -21.824219 C 51.207031 -27.871094 47.75 -34.140625 44.292969 -40.621094 C 55.097656 -39.972656 68.0625 -48.398438 76.921875 -54.015625 C 84.914062 -59.417969 90.964844 -68.0625 97.878906 -75.625 C 111.707031 -90.101562 124.671875 -107.820312 128.34375 -128.128906 C 123.375 -100.039062 106.523438 -78 85.5625 -59.851562 C 92.476562 -61.578125 99.390625 -69.574219 104.144531 -74.542969 C 109.546875 -79.730469 114.300781 -85.78125 118.839844 -91.828125 C 124.023438 -98.960938 128.34375 -106.738281 131.371094 -115.164062 C 132.667969 -118.40625 137.203125 -127.914062 136.339844 -132.234375 C 136.339844 -132.234375 135.691406 -130.722656 135.261719 -129.640625 C 135.90625 -133.316406 136.339844 -136.773438 136.125 -140.660156 C 136.339844 -139.796875 136.773438 -138.5 136.554688 -138.285156 C 136.988281 -138.5 136.773438 -141.308594 136.773438 -142.390625 C 136.773438 -142.390625 136.554688 -143.902344 136.773438 -143.46875 C 135.90625 -153.839844 126.402344 -166.15625 115.164062 -162.917969 Z M 114.949219 -136.554688 C 114.734375 -135.691406 114.734375 -135.90625 114.949219 -136.339844 C 113.867188 -121.429688 105.441406 -106.738281 97.015625 -94.855469 C 92.695312 -88.589844 87.722656 -82.753906 82.539062 -77.136719 C 80.160156 -74.761719 77.570312 -72.382812 74.976562 -70.222656 C 73.03125 -68.277344 68.925781 -66.117188 66.980469 -63.742188 C 68.710938 -65.46875 72.597656 -67.628906 74.328125 -68.925781 C 77.785156 -71.953125 81.242188 -75.410156 84.484375 -78.648438 C 89.667969 -84.265625 94.636719 -90.101562 98.960938 -96.367188 C 85.78125 -76.703125 67.628906 -59.636719 45.808594 -50.558594 C 47.535156 -51.640625 51.855469 -53.800781 51.855469 -54.015625 C 51.425781 -54.449219 42.78125 -50.558594 41.917969 -50.128906 C 44.726562 -55.746094 47.535156 -61.363281 50.558594 -66.980469 C 51.425781 -68.277344 58.339844 -81.457031 58.339844 -81.457031 C 57.90625 -81.457031 57.472656 -81.242188 57.257812 -80.59375 C 66.765625 -95.933594 79.296875 -111.277344 90.964844 -125.320312 C 94.636719 -129.640625 116.03125 -157.515625 114.949219 -136.773438 Z M 64.171875 -127.914062 C 64.605469 -128.777344 66.550781 -133.746094 66.117188 -132.882812 L 60.5 -120.566406 C 61.796875 -122.945312 63.09375 -125.320312 64.171875 -127.914062 Z M 45.589844 -39.539062 C 45.160156 -39.324219 46.453125 -37.164062 48.183594 -34.140625 C 46.671875 -37.164062 45.375 -39.539062 45.589844 -39.539062 Z M 60.933594 -13.179688 C 60.933594 -13.179688 60.933594 -13.394531 61.148438 -12.964844 L 61.148438 -12.75 Z M 60.933594 -13.179688 C 60.714844 -13.179688 60.714844 -13.394531 60.5 -13.613281 C 60.714844 -13.394531 60.714844 -13.179688 60.933594 -13.179688 Z M 55.3125 -77.570312 C 55.3125 -77.785156 55.53125 -77.785156 55.53125 -78 C 55.53125 -77.785156 55.3125 -77.570312 55.3125 -77.570312 Z M 55.3125 -77.570312 "/></g></g></g></g><g fill="#5d3e1d" fill-opacity="1"><g transform="translate(116.978262, 236.677497)"><g><path d="M 109.980469 -52.074219 C 109.761719 -56.828125 105.875 -52.722656 104.578125 -50.992188 C 101.769531 -46.886719 99.175781 -42.566406 96.582031 -38.460938 C 90.75 -29.601562 84.914062 -20.742188 78.21875 -12.316406 C 55.960938 15.125 71.519531 -33.707031 69.789062 -33.273438 C 68.925781 -33.058594 68.277344 -29.816406 68.0625 -29.167969 C 69.789062 -36.949219 73.03125 -46.238281 77.136719 -53.800781 C 79.515625 -58.554688 82.324219 -62.445312 78 -67.628906 C 70.007812 -77.351562 60.714844 -68.496094 55.53125 -61.796875 C 53.371094 -70.007812 49.046875 -82.105469 38.460938 -82.105469 C 33.707031 -82.105469 30.898438 -79.730469 27.65625 -76.921875 C 25.710938 -75.625 24.199219 -75.410156 22.472656 -73.894531 C 19.664062 -71.953125 17.71875 -68.925781 15.773438 -66.332031 C 8.425781 -55.53125 3.242188 -41.917969 0.863281 -29.386719 C -0.214844 -23.335938 -0.648438 -16.636719 1.082031 -10.585938 C 2.160156 -7.128906 6.050781 0.648438 11.019531 0 C 11.234375 0 10.804688 -0.214844 10.15625 -0.648438 C 13.179688 0.214844 16.636719 -0.214844 19.230469 -1.945312 C 19.445312 -1.511719 16.851562 -0.433594 16.851562 -0.433594 C 19.230469 3.242188 36.949219 -18.148438 38.246094 -20.09375 C 41.054688 -23.984375 42.996094 -28.089844 45.589844 -32.195312 C 47.535156 -35.21875 50.558594 -39.109375 52.722656 -42.351562 C 52.503906 -40.835938 52.503906 -38.894531 52.503906 -38.894531 C 48.617188 -26.578125 44.941406 -13.179688 50.128906 -0.433594 C 52.503906 6.050781 58.339844 12.101562 65.683594 10.804688 C 72.167969 9.722656 77.570312 3.457031 81.457031 -1.511719 C 86.210938 -7.128906 90.316406 -13.394531 94.421875 -19.878906 C 97.878906 -25.710938 101.121094 -31.546875 103.929688 -38.027344 C 105.65625 -42.132812 110.410156 -47.101562 109.980469 -52.074219 Z M 47.96875 -50.558594 C 46.886719 -49.046875 45.808594 -47.535156 44.941406 -46.023438 L 39.324219 -38.027344 C 35.652344 -32.625 31.761719 -27.441406 27.65625 -22.472656 C 26.578125 -20.957031 21.390625 -14.261719 19.230469 -14.910156 C 15.988281 -15.988281 19.445312 -27.226562 19.878906 -28.953125 C 20.527344 -31.976562 31.976562 -65.253906 35.003906 -65.902344 C 31.113281 -66.117188 18.582031 -27.007812 17.933594 -23.769531 C 19.664062 -34.355469 23.550781 -44.726562 27.871094 -54.449219 C 30.25 -59.417969 35.652344 -72.597656 42.78125 -72.597656 C 46.671875 -72.597656 47.535156 -64.605469 48.183594 -62.011719 C 47.96875 -62.445312 46.023438 -68.710938 45.808594 -68.496094 C 44.726562 -67.628906 49.046875 -55.746094 49.046875 -54.015625 C 49.046875 -52.289062 49.046875 -52.289062 47.96875 -50.558594 Z M 52.9375 -39.972656 C 52.9375 -39.972656 53.585938 -42.996094 53.800781 -43.644531 L 54.882812 -45.160156 Z M 49.695312 -53.371094 L 49.695312 -55.53125 C 50.34375 -54.664062 50.34375 -54.015625 49.695312 -53.371094 Z M 49.695312 -53.371094 "/></g></g></g><g fill="#5d3e1d" fill-opacity="1"><g transform="translate(211.178091, 236.677497)"><g><path d="M 127.699219 -52.722656 L 127.699219 -52.9375 C 126.402344 -60.066406 116.679688 -48.183594 115.382812 -47.101562 C 109.117188 -40.1875 103.28125 -32.625 97.664062 -25.0625 C 92.046875 -17.285156 86.644531 -9.507812 80.808594 -1.730469 C 78 2.160156 75.191406 5.832031 71.953125 9.289062 C 70.871094 10.585938 68.277344 14.261719 66.332031 14.261719 C 58.769531 14.261719 64.605469 -16.207031 65.46875 -20.957031 C 66.765625 -29.386719 67.414062 -40.621094 72.816406 -47.320312 C 74.113281 -49.046875 88.804688 -67.847656 88.804688 -67.847656 C 88.371094 -68.0625 86.644531 -65.902344 85.5625 -64.605469 L 94.855469 -77.136719 L 95.503906 -78 L 95.71875 -78 L 95.503906 -78 L 97.230469 -80.378906 C 97.449219 -80.160156 97.230469 -79.730469 97.015625 -79.296875 L 98.960938 -81.457031 L 104.578125 -88.804688 C 108.683594 -94.636719 112.574219 -100.90625 116.246094 -106.953125 C 122.078125 -116.894531 130.074219 -131.15625 125.753906 -143.253906 C 122.511719 -152.113281 110.628906 -153.839844 102.632812 -150.816406 C 96.800781 -148.65625 91.828125 -144.117188 87.722656 -139.363281 C 85.5625 -136.554688 83.402344 -133.53125 81.457031 -130.289062 C 80.808594 -129.425781 78 -122.511719 77.351562 -121.648438 L 77.570312 -121.648438 C 76.273438 -119.269531 74.976562 -116.894531 74.113281 -114.515625 C 74.542969 -116.246094 75.625 -119.703125 76.488281 -120.351562 C 74.761719 -119.054688 73.246094 -112.789062 72.816406 -112.140625 C 64.605469 -94.207031 57.472656 -76.054688 52.289062 -57.042969 C 46.453125 -63.742188 37.164062 -75.191406 27.007812 -71.085938 C 18.582031 -67.628906 12.316406 -58.769531 7.996094 -50.992188 C 4.105469 -44.078125 3.023438 -36.949219 0.214844 -30.25 C -4.753906 -18.796875 -7.128906 4.753906 9.722656 8.210938 C 14.910156 9.289062 19.664062 6.050781 23.769531 3.242188 C 31.113281 -2.160156 38.027344 -8.425781 44.511719 -14.910156 C 43.429688 -3.457031 41.054688 13.828125 50.34375 22.902344 C 61.796875 34.570312 73.246094 18.796875 80.160156 10.15625 C 89.019531 -1.082031 95.933594 -13.613281 104.792969 -24.414062 C 109.117188 -29.601562 113.4375 -34.789062 117.972656 -39.539062 C 121.429688 -42.996094 128.34375 -47.320312 127.699219 -52.722656 Z M 48.183594 -38.460938 C 47.96875 -37.8125 47.96875 -37.378906 47.96875 -37.378906 C 47.101562 -32.195312 47.101562 -27.65625 43.429688 -23.984375 C 40.1875 -20.527344 36.730469 -17.285156 33.273438 -14.042969 C 30.035156 -11.019531 22.253906 -2.160156 17.285156 -2.59375 C 11.234375 -3.242188 15.773438 -17.070312 18.796875 -25.496094 C 15.558594 -16.851562 10.371094 -2.808594 17.5 -2.375 C 19.445312 -2.160156 22.6875 -3.890625 25.496094 -6.265625 C 22.902344 -3.890625 18.582031 -0.648438 15.988281 -1.945312 C 11.019531 -4.105469 15.339844 -16.421875 16.207031 -19.878906 C 19.015625 -29.816406 23.121094 -39.324219 27.871094 -48.398438 C 30.25 -52.9375 33.707031 -60.285156 38.246094 -60.714844 L 37.164062 -60.066406 C 37.378906 -60.285156 37.597656 -60.285156 37.8125 -60.285156 C 39.324219 -60.714844 40.835938 -59.636719 41.917969 -58.769531 C 44.726562 -56.828125 46.453125 -53.152344 48.398438 -50.34375 C 50.558594 -46.886719 49.046875 -43.214844 48.183594 -39.324219 Z M 82.972656 -88.371094 C 82.972656 -88.589844 82.972656 -89.019531 83.1875 -89.238281 L 83.1875 -89.453125 C 83.402344 -90.101562 83.617188 -90.316406 83.617188 -90.316406 L 83.617188 -90.535156 C 88.589844 -104.363281 93.992188 -118.191406 101.769531 -130.722656 C 103.714844 -133.964844 109.332031 -143.902344 114.300781 -141.09375 C 116.246094 -140.011719 116.679688 -137.203125 116.679688 -135.261719 C 117.542969 -122.296875 107.171875 -106.953125 100.6875 -96.582031 C 93.125 -84.484375 84.699219 -72.597656 75.839844 -61.578125 L 80.59375 -66.550781 L 84.914062 -71.953125 L 73.894531 -57.691406 L 72.382812 -55.746094 L 71.519531 -54.882812 C 71.734375 -56.179688 72.816406 -57.472656 73.894531 -58.988281 C 73.464844 -58.554688 73.03125 -58.121094 72.816406 -57.691406 C 75.625 -66.980469 78.648438 -76.273438 81.890625 -85.5625 C 81.675781 -85.347656 81.890625 -85.78125 82.105469 -86.644531 L 82.753906 -87.722656 C 82.753906 -87.941406 82.753906 -88.15625 82.972656 -88.371094 Z M 64.820312 -70.65625 C 64.390625 -69.574219 63.09375 -64.605469 62.445312 -63.957031 C 62.445312 -63.742188 62.226562 -63.523438 62.011719 -63.523438 C 63.742188 -65.683594 62.660156 -68.496094 63.523438 -71.085938 C 63.957031 -72.382812 66.117188 -74.761719 66.550781 -76.488281 C 66.550781 -74.761719 65.46875 -71.734375 64.820312 -70.65625 Z M 30.464844 -10.804688 C 35.867188 -15.558594 41.054688 -20.527344 46.023438 -25.710938 C 45.589844 -22.902344 38.894531 -18.148438 36.515625 -15.988281 C 33.707031 -13.179688 30.464844 -10.371094 27.226562 -7.777344 L 27.007812 -7.777344 Z M 68.710938 -90.316406 C 67.847656 -87.722656 66.765625 -85.347656 65.46875 -82.972656 C 66.550781 -86.210938 67.199219 -89.453125 68.710938 -92.476562 C 70.007812 -94.855469 71.519531 -97.878906 72.597656 -100.6875 C 71.519531 -97.230469 69.789062 -93.558594 68.710938 -90.316406 Z M 82.753906 -87.722656 L 81.890625 -85.5625 C 81.890625 -85.78125 82.105469 -86.210938 82.105469 -86.644531 Z M 36.082031 -59.203125 C 35.21875 -58.554688 34.570312 -57.691406 34.355469 -57.691406 C 34.789062 -57.691406 35.433594 -58.554688 36.082031 -59.203125 Z M 42.132812 -59.636719 C 42.566406 -59.417969 42.996094 -59.203125 43.429688 -58.769531 Z M 84.914062 -63.523438 C 84.914062 -63.742188 85.132812 -63.957031 85.347656 -64.171875 C 85.132812 -63.742188 84.914062 -63.523438 84.914062 -63.523438 Z M 85.347656 -64.171875 L 85.5625 -64.605469 C 85.5625 -64.390625 85.347656 -64.171875 85.347656 -64.171875 Z M 85.347656 -64.171875 "/></g></g></g><g fill="#5d3e1d" fill-opacity="1"><g transform="translate(323.094397, 236.677497)"><g><path d="M 125.96875 -51.640625 C 125.320312 -58.554688 118.621094 -51.855469 116.460938 -49.914062 C 112.789062 -46.886719 108.898438 -44.292969 105.226562 -41.269531 C 94.636719 -33.273438 84.699219 -24.847656 74.761719 -16.421875 C 78.867188 -28.089844 84.914062 -39.757812 91.398438 -50.34375 C 92.695312 -52.503906 93.773438 -54.449219 93.34375 -57.042969 C 92.261719 -62.875 84.484375 -65.253906 79.296875 -64.390625 C 74.761719 -63.523438 74.328125 -61.363281 73.464844 -58.339844 C 71.734375 -52.9375 65.46875 -48.183594 61.796875 -44.078125 C 60.285156 -42.351562 50.128906 -30.035156 49.914062 -30.035156 C 50.558594 -30.035156 50.992188 -30.464844 51.425781 -30.683594 C 46.671875 -25.710938 39.324219 -20.527344 33.492188 -15.988281 C 31.113281 -14.042969 24.199219 -7.128906 20.527344 -8.425781 C 10.15625 -11.667969 31.546875 -53.152344 30.898438 -53.371094 C 30.25 -53.585938 23.335938 -36.515625 21.824219 -32.625 C 25.28125 -43.214844 29.816406 -53.585938 34.570312 -63.523438 C 34.355469 -62.660156 33.707031 -60.933594 34.140625 -60.933594 C 34.789062 -60.714844 38.027344 -67.847656 37.378906 -68.0625 C 37.164062 -68.0625 36.949219 -67.847656 36.730469 -67.847656 C 37.378906 -68.710938 38.460938 -69.140625 38.894531 -70.4375 C 39.539062 -73.246094 36.300781 -76.273438 33.921875 -77.136719 C 28.738281 -79.296875 22.6875 -76.273438 20.3125 -71.304688 C 19.664062 -70.4375 19.015625 -68.925781 18.582031 -68.496094 C 17.933594 -67.199219 16.851562 -66.765625 15.988281 -65.46875 C 13.613281 -61.363281 12.316406 -56.609375 10.585938 -52.289062 C 9.9375 -50.34375 2.375 -28.738281 3.457031 -28.519531 L 3.890625 -28.953125 C 3.457031 -27.441406 3.242188 -25.710938 3.023438 -24.199219 C 2.59375 -24.414062 3.242188 -25.710938 2.808594 -25.710938 C 0.648438 -25.929688 -0.214844 -12.101562 0 -10.585938 C 0.433594 -6.265625 3.242188 -0.863281 7.347656 1.296875 C 9.289062 2.375 11.882812 2.808594 14.261719 2.375 C 15.125 2.375 19.230469 0.648438 17.71875 0.648438 L 19.015625 0.214844 L 18.582031 0.648438 C 18.796875 0.863281 26.578125 -2.59375 27.871094 -3.023438 C 34.140625 -5.617188 39.539062 -10.585938 44.078125 -15.339844 L 58.339844 -29.601562 C 61.578125 -32.84375 64.390625 -37.8125 67.847656 -40.40625 C 65.902344 -34.355469 63.957031 -28.304688 62.226562 -22.253906 C 59.851562 -15.125 58.554688 -6.265625 55.097656 0.214844 C 52.289062 5.402344 45.160156 10.15625 41.054688 14.261719 C 35.21875 19.664062 29.386719 25.0625 23.984375 30.683594 C 16.421875 38.675781 9.722656 47.75 3.023438 56.609375 C -3.890625 65.902344 -13.394531 79.082031 -4.753906 90.316406 C 1.082031 98.3125 11.882812 103.28125 21.605469 100.6875 C 30.464844 98.527344 33.921875 91.179688 38.246094 84.265625 C 52.074219 61.363281 59.636719 34.789062 67.628906 9.507812 C 68.925781 5.832031 69.789062 -0.648438 71.953125 -3.671875 C 74.113281 -6.699219 78.433594 -9.289062 81.027344 -11.667969 C 87.507812 -17.5 94.207031 -23.121094 100.90625 -28.519531 L 119.703125 -43.429688 C 122.511719 -45.589844 126.402344 -47.535156 125.96875 -51.640625 Z M 33.058594 60.5 L 33.058594 60.714844 L 32.195312 62.445312 L 32.195312 62.660156 C 31.976562 62.660156 31.976562 62.875 31.976562 62.875 C 31.976562 63.09375 31.761719 63.523438 31.761719 63.523438 C 29.601562 68.496094 27.007812 73.464844 24.199219 78.21875 C 21.824219 82.105469 18.582031 88.371094 14.042969 89.886719 C 5.402344 92.910156 4.753906 78.648438 6.050781 73.894531 C 9.289062 62.226562 17.933594 52.074219 25.28125 42.78125 C 32.84375 33.058594 40.835938 24.199219 49.914062 15.773438 C 44.726562 30.683594 39.539062 45.808594 33.058594 60.5 Z M 45.589844 57.472656 C 46.453125 54.882812 47.96875 52.074219 49.480469 49.480469 C 48.183594 53.371094 47.101562 57.257812 44.726562 61.148438 L 42.78125 64.605469 C 43.644531 62.226562 44.511719 59.636719 45.589844 57.472656 Z M 52.9375 33.921875 L 49.046875 43.429688 C 49.480469 41.484375 49.914062 39.324219 50.777344 38.027344 C 51.640625 36.082031 53.371094 32.625 52.9375 30.25 C 53.152344 31.332031 53.371094 32.84375 52.9375 33.921875 Z M 46.023438 52.289062 L 46.886719 50.992188 C 46.671875 51.425781 46.453125 51.855469 46.023438 52.289062 Z M 46.023438 52.289062 "/></g></g></g><g fill="#5d3e1d" fill-opacity="1"><g transform="translate(433.28227, 236.677497)"><g/></g></g><g fill="#5d3e1d" fill-opacity="1"><g transform="translate(493.777578, 236.677497)"><g><path d="M 127.699219 -52.722656 L 127.699219 -52.9375 C 126.402344 -60.066406 116.679688 -48.183594 115.382812 -47.101562 C 109.117188 -40.1875 103.28125 -32.625 97.664062 -25.0625 C 92.046875 -17.285156 86.644531 -9.507812 80.808594 -1.730469 C 78 2.160156 75.191406 5.832031 71.953125 9.289062 C 70.871094 10.585938 68.277344 14.261719 66.332031 14.261719 C 58.769531 14.261719 64.605469 -16.207031 65.46875 -20.957031 C 66.765625 -29.386719 67.414062 -40.621094 72.816406 -47.320312 C 74.113281 -49.046875 88.804688 -67.847656 88.804688 -67.847656 C 88.371094 -68.0625 86.644531 -65.902344 85.5625 -64.605469 L 94.855469 -77.136719 L 95.503906 -78 L 95.71875 -78 L 95.503906 -78 L 97.230469 -80.378906 C 97.449219 -80.160156 97.230469 -79.730469 97.015625 -79.296875 L 98.960938 -81.457031 L 104.578125 -88.804688 C 108.683594 -94.636719 112.574219 -100.90625 116.246094 -106.953125 C 122.078125 -116.894531 130.074219 -131.15625 125.753906 -143.253906 C 122.511719 -152.113281 110.628906 -153.839844 102.632812 -150.816406 C 96.800781 -148.65625 91.828125 -144.117188 87.722656 -139.363281 C 85.5625 -136.554688 83.402344 -133.53125 81.457031 -130.289062 C 80.808594 -129.425781 78 -122.511719 77.351562 -121.648438 L 77.570312 -121.648438 C 76.273438 -119.269531 74.976562 -116.894531 74.113281 -114.515625 C 74.542969 -116.246094 75.625 -119.703125 76.488281 -120.351562 C 74.761719 -119.054688 73.246094 -112.789062 72.816406 -112.140625 C 64.605469 -94.207031 57.472656 -76.054688 52.289062 -57.042969 C 46.453125 -63.742188 37.164062 -75.191406 27.007812 -71.085938 C 18.582031 -67.628906 12.316406 -58.769531 7.996094 -50.992188 C 4.105469 -44.078125 3.023438 -36.949219 0.214844 -30.25 C -4.753906 -18.796875 -7.128906 4.753906 9.722656 8.210938 C 14.910156 9.289062 19.664062 6.050781 23.769531 3.242188 C 31.113281 -2.160156 38.027344 -8.425781 44.511719 -14.910156 C 43.429688 -3.457031 41.054688 13.828125 50.34375 22.902344 C 61.796875 34.570312 73.246094 18.796875 80.160156 10.15625 C 89.019531 -1.082031 95.933594 -13.613281 104.792969 -24.414062 C 109.117188 -29.601562 113.4375 -34.789062 117.972656 -39.539062 C 121.429688 -42.996094 128.34375 -47.320312 127.699219 -52.722656 Z M 48.183594 -38.460938 C 47.96875 -37.8125 47.96875 -37.378906 47.96875 -37.378906 C 47.101562 -32.195312 47.101562 -27.65625 43.429688 -23.984375 C 40.1875 -20.527344 36.730469 -17.285156 33.273438 -14.042969 C 30.035156 -11.019531 22.253906 -2.160156 17.285156 -2.59375 C 11.234375 -3.242188 15.773438 -17.070312 18.796875 -25.496094 C 15.558594 -16.851562 10.371094 -2.808594 17.5 -2.375 C 19.445312 -2.160156 22.6875 -3.890625 25.496094 -6.265625 C 22.902344 -3.890625 18.582031 -0.648438 15.988281 -1.945312 C 11.019531 -4.105469 15.339844 -16.421875 16.207031 -19.878906 C 19.015625 -29.816406 23.121094 -39.324219 27.871094 -48.398438 C 30.25 -52.9375 33.707031 -60.285156 38.246094 -60.714844 L 37.164062 -60.066406 C 37.378906 -60.285156 37.597656 -60.285156 37.8125 -60.285156 C 39.324219 -60.714844 40.835938 -59.636719 41.917969 -58.769531 C 44.726562 -56.828125 46.453125 -53.152344 48.398438 -50.34375 C 50.558594 -46.886719 49.046875 -43.214844 48.183594 -39.324219 Z M 82.972656 -88.371094 C 82.972656 -88.589844 82.972656 -89.019531 83.1875 -89.238281 L 83.1875 -89.453125 C 83.402344 -90.101562 83.617188 -90.316406 83.617188 -90.316406 L 83.617188 -90.535156 C 88.589844 -104.363281 93.992188 -118.191406 101.769531 -130.722656 C 103.714844 -133.964844 109.332031 -143.902344 114.300781 -141.09375 C 116.246094 -140.011719 116.679688 -137.203125 116.679688 -135.261719 C 117.542969 -122.296875 107.171875 -106.953125 100.6875 -96.582031 C 93.125 -84.484375 84.699219 -72.597656 75.839844 -61.578125 L 80.59375 -66.550781 L 84.914062 -71.953125 L 73.894531 -57.691406 L 72.382812 -55.746094 L 71.519531 -54.882812 C 71.734375 -56.179688 72.816406 -57.472656 73.894531 -58.988281 C 73.464844 -58.554688 73.03125 -58.121094 72.816406 -57.691406 C 75.625 -66.980469 78.648438 -76.273438 81.890625 -85.5625 C 81.675781 -85.347656 81.890625 -85.78125 82.105469 -86.644531 L 82.753906 -87.722656 C 82.753906 -87.941406 82.753906 -88.15625 82.972656 -88.371094 Z M 64.820312 -70.65625 C 64.390625 -69.574219 63.09375 -64.605469 62.445312 -63.957031 C 62.445312 -63.742188 62.226562 -63.523438 62.011719 -63.523438 C 63.742188 -65.683594 62.660156 -68.496094 63.523438 -71.085938 C 63.957031 -72.382812 66.117188 -74.761719 66.550781 -76.488281 C 66.550781 -74.761719 65.46875 -71.734375 64.820312 -70.65625 Z M 30.464844 -10.804688 C 35.867188 -15.558594 41.054688 -20.527344 46.023438 -25.710938 C 45.589844 -22.902344 38.894531 -18.148438 36.515625 -15.988281 C 33.707031 -13.179688 30.464844 -10.371094 27.226562 -7.777344 L 27.007812 -7.777344 Z M 68.710938 -90.316406 C 67.847656 -87.722656 66.765625 -85.347656 65.46875 -82.972656 C 66.550781 -86.210938 67.199219 -89.453125 68.710938 -92.476562 C 70.007812 -94.855469 71.519531 -97.878906 72.597656 -100.6875 C 71.519531 -97.230469 69.789062 -93.558594 68.710938 -90.316406 Z M 82.753906 -87.722656 L 81.890625 -85.5625 C 81.890625 -85.78125 82.105469 -86.210938 82.105469 -86.644531 Z M 36.082031 -59.203125 C 35.21875 -58.554688 34.570312 -57.691406 34.355469 -57.691406 C 34.789062 -57.691406 35.433594 -58.554688 36.082031 -59.203125 Z M 42.132812 -59.636719 C 42.566406 -59.417969 42.996094 -59.203125 43.429688 -58.769531 Z M 84.914062 -63.523438 C 84.914062 -63.742188 85.132812 -63.957031 85.347656 -64.171875 C 85.132812 -63.742188 84.914062 -63.523438 84.914062 -63.523438 Z M 85.347656 -64.171875 L 85.5625 -64.605469 C 85.5625 -64.390625 85.347656 -64.171875 85.347656 -64.171875 Z M 85.347656 -64.171875 "/></g></g></g><g fill="#5d3e1d" fill-opacity="1"><g transform="translate(605.693902, 236.677497)"><g><path d="M 99.390625 -53.800781 C 99.390625 -53.800781 99.609375 -53.585938 99.390625 -54.015625 C 98.3125 -55.53125 96.800781 -54.449219 95.285156 -54.015625 C 89.019531 -52.722656 82.539062 -51.207031 76.054688 -50.128906 C 78.433594 -57.90625 80.808594 -66.117188 81.675781 -74.113281 C 82.105469 -77.136719 82.324219 -80.378906 81.675781 -83.402344 C 81.242188 -85.347656 80.59375 -87.292969 79.515625 -89.019531 C 79.515625 -89.019531 76.921875 -92.261719 77.570312 -90.535156 L 77.351562 -90.75 L 76.488281 -92.476562 L 77.351562 -91.613281 C 77.570312 -92.910156 73.894531 -95.285156 73.894531 -95.285156 C 68.496094 -100.6875 61.148438 -104.792969 53.800781 -100.6875 C 49.265625 -98.097656 45.589844 -93.773438 42.566406 -89.453125 C 41.484375 -87.941406 40.40625 -86.210938 39.539062 -84.484375 C 38.675781 -82.753906 37.378906 -77.136719 36.082031 -76.273438 C 35.003906 -75.410156 31.761719 -75.191406 30.25 -74.328125 C 28.089844 -73.464844 26.144531 -72.382812 24.414062 -71.085938 C 20.3125 -68.496094 17.070312 -64.820312 14.042969 -61.148438 C 8.859375 -54.234375 6.265625 -46.453125 2.59375 -39.539062 C -4.320312 -26.359375 3.242188 -9.074219 15.988281 -2.808594 C 20.09375 -0.863281 24.847656 0 29.167969 -0.433594 C 33.707031 -1.082031 38.027344 -3.457031 41.484375 -6.050781 C 44.726562 -8.425781 51.855469 -12.75 53.152344 -16.421875 C 53.152344 -16.636719 52.722656 -16.421875 52.074219 -15.773438 L 58.339844 -23.121094 C 58.554688 -22.902344 56.828125 -20.742188 56.828125 -20.742188 C 58.339844 -20.09375 66.117188 -31.546875 66.980469 -32.410156 C 68.496094 -35.003906 70.007812 -37.8125 71.734375 -40.40625 C 73.246094 -42.351562 72.816406 -42.132812 74.976562 -42.996094 C 74.761719 -42.78125 77.570312 -43.644531 78 -43.644531 C 80.378906 -44.078125 105.65625 -45.808594 99.390625 -53.800781 Z M 24.632812 -10.15625 L 24.414062 -10.15625 C 6.480469 -7.5625 27.226562 -45.589844 27.65625 -47.75 L 26.359375 -45.808594 C 29.601562 -52.289062 32.625 -57.472656 34.140625 -59.203125 C 36.515625 -48.398438 48.183594 -44.292969 57.691406 -42.996094 C 51.425781 -30.464844 39.757812 -12.964844 24.632812 -10.15625 Z M 67.199219 -70.007812 C 65.683594 -63.957031 64.390625 -55.960938 61.148438 -50.558594 C 60.066406 -48.398438 60.714844 -49.046875 58.554688 -48.617188 C 57.257812 -48.183594 54.449219 -48.617188 53.152344 -48.832031 C 50.777344 -49.046875 47.96875 -49.480469 46.238281 -50.992188 C 43.214844 -53.585938 43.644531 -57.691406 44.078125 -61.363281 C 44.511719 -65.035156 45.589844 -68.496094 46.886719 -71.953125 C 47.535156 -73.246094 51.640625 -80.160156 50.992188 -81.457031 C 50.777344 -82.105469 48.398438 -78.21875 48.183594 -78 C 49.480469 -80.378906 50.777344 -81.675781 51.855469 -83.1875 C 51.640625 -83.1875 51.855469 -83.402344 52.074219 -83.835938 L 52.074219 -83.617188 L 52.289062 -84.050781 C 52.289062 -84.050781 52.289062 -84.265625 52.503906 -84.265625 C 55.746094 -88.589844 63.742188 -98.3125 68.0625 -91.613281 C 71.304688 -85.996094 68.277344 -75.410156 67.199219 -70.007812 Z M 52.289062 -84.050781 L 52.503906 -84.265625 C 52.503906 -84.050781 52.289062 -84.050781 52.289062 -84.050781 Z M 52.289062 -84.050781 "/></g></g></g><g fill="#5d3e1d" fill-opacity="1"><g transform="translate(690.171267, 236.677497)"><g/></g></g><g fill="#5d3e1d" fill-opacity="1"><g transform="translate(750.666543, 236.677497)"><g><path d="M 70.871094 -33.707031 C 70.871094 -33.273438 70.65625 -32.84375 70.4375 -32.625 C 66.332031 -44.511719 57.042969 -49.914062 44.726562 -49.265625 C 46.238281 -50.558594 62.226562 -65.683594 62.226562 -65.683594 C 61.578125 -65.683594 61.148438 -65.46875 60.5 -65.035156 C 65.683594 -69.574219 73.246094 -73.679688 78.648438 -79.296875 C 80.378906 -81.027344 83.1875 -83.835938 83.617188 -86.429688 C 84.699219 -92.695312 76.273438 -92.476562 72.167969 -92.695312 C 69.789062 -92.695312 44.511719 -91.828125 44.511719 -91.398438 C 44.511719 -91.179688 47.320312 -91.179688 49.914062 -91.179688 C 45.375 -90.964844 41.054688 -90.316406 36.515625 -89.667969 C 37.378906 -89.886719 38.027344 -90.316406 38.027344 -90.535156 C 38.027344 -91.179688 31.546875 -90.316406 31.761719 -89.453125 L 31.761719 -89.238281 C 30.898438 -89.238281 30.25 -89.667969 28.953125 -89.453125 C 26.792969 -89.019531 24.199219 -85.996094 23.121094 -84.265625 C 21.824219 -82.105469 21.175781 -79.296875 22.472656 -76.921875 C 23.769531 -74.976562 25.28125 -75.410156 26.578125 -74.542969 C 27.871094 -73.679688 28.304688 -72.597656 30.035156 -71.953125 C 33.058594 -70.65625 37.597656 -71.953125 40.621094 -72.597656 C 42.132812 -72.816406 61.578125 -77.785156 61.148438 -78.648438 L 60.5 -78.648438 L 63.09375 -79.730469 C 59.636719 -76.054688 56.828125 -71.734375 53.371094 -68.277344 C 51.425781 -66.332031 48.832031 -64.820312 46.886719 -62.875 C 45.375 -61.148438 45.375 -60.714844 44.726562 -59.851562 C 43.863281 -58.988281 40.621094 -56.394531 40.40625 -56.394531 C 36.949219 -54.234375 33.707031 -52.503906 30.683594 -49.914062 C 27.871094 -47.535156 25.710938 -46.238281 22.472656 -44.726562 C 22.253906 -44.726562 14.691406 -40.40625 15.773438 -39.972656 L 15.773438 -39.757812 C 14.476562 -38.246094 13.394531 -36.300781 14.042969 -34.140625 C 14.910156 -30.898438 17.71875 -28.519531 21.175781 -29.167969 C 25.496094 -30.25 30.464844 -34.789062 34.570312 -36.949219 C 39.539062 -39.324219 47.75 -42.566406 52.503906 -38.027344 C 54.882812 -35.652344 56.179688 -31.113281 56.609375 -27.871094 C 57.042969 -23.335938 54.882812 -22.6875 50.992188 -20.3125 C 31.332031 -8.644531 9.9375 0 -9.9375 11.882812 C -17.71875 16.421875 -26.578125 21.390625 -32.195312 28.738281 C -33.921875 31.332031 -40.835938 41.917969 -38.027344 44.726562 C -37.8125 44.726562 -37.378906 43.429688 -36.949219 42.351562 C -37.164062 43.429688 -37.164062 44.511719 -37.164062 45.808594 C -36.949219 46.671875 -37.164062 50.992188 -35.652344 53.371094 C -33.707031 56.609375 -30.464844 58.554688 -27.007812 60.066406 C -23.769531 61.363281 -20.09375 62.226562 -16.636719 62.660156 C -5.832031 63.957031 6.914062 63.09375 16.207031 57.042969 C 25.0625 51.425781 34.140625 44.941406 40.40625 36.300781 C 45.160156 30.035156 50.128906 23.984375 54.015625 17.285156 C 57.257812 11.667969 61.363281 4.96875 63.523438 -1.296875 C 61.578125 4.539062 58.554688 10.585938 56.394531 16.207031 C 53.585938 23.550781 49.046875 30.035156 44.078125 36.082031 C 36.515625 45.375 25.28125 52.503906 15.125 58.339844 C 38.894531 48.617188 57.257812 25.929688 67.847656 3.023438 C 70.4375 -2.59375 72.382812 -8.425781 73.03125 -14.691406 C 73.246094 -16.421875 73.246094 -18.367188 73.246094 -20.3125 C 73.246094 -22.902344 73.03125 -23.121094 74.761719 -25.0625 C 76.921875 -27.441406 80.378906 -29.601562 82.972656 -31.761719 C 88.804688 -36.515625 94.855469 -41.054688 100.039062 -46.453125 C 101.769531 -48.183594 104.578125 -51.207031 103.714844 -53.800781 C 101.335938 -58.339844 91.613281 -48.398438 89.886719 -47.101562 L 71.085938 -33.058594 C 71.085938 -33.273438 70.871094 -33.492188 70.871094 -33.707031 Z M 49.480469 -4.539062 C 44.941406 6.914062 38.894531 16.207031 30.464844 25.496094 C 25.496094 30.898438 20.09375 36.300781 14.476562 41.054688 C 12.101562 43.214844 9.507812 45.160156 6.914062 46.886719 C 5.402344 47.75 2.160156 50.34375 0 51.425781 L 0.214844 51.425781 C -2.59375 52.9375 -5.402344 54.234375 -8.210938 55.3125 C -7.5625 54.882812 -6.699219 54.449219 -6.699219 54.449219 C -6.914062 54.449219 -16.207031 55.960938 -17.933594 55.53125 C -19.445312 55.097656 -20.742188 54.449219 -21.824219 53.152344 C -28.304688 45.808594 -18.367188 36.515625 -12.964844 31.761719 C -7.777344 27.007812 -1.511719 23.550781 4.539062 20.09375 L 14.261719 14.476562 C 16.636719 13.179688 21.824219 11.019531 23.335938 8.644531 C 23.335938 8.425781 23.121094 8.210938 22.902344 8.210938 L 27.65625 5.617188 L 24.199219 7.996094 C 25.496094 8.210938 28.738281 4.96875 28.953125 4.753906 C 36.082031 0.433594 43.644531 -3.457031 50.777344 -7.996094 C 50.34375 -6.914062 50.128906 -5.832031 49.480469 -4.539062 Z M 60.285156 -47.320312 C 60.714844 -47.101562 50.992188 -50.992188 50.992188 -49.914062 C 50.992188 -50.558594 60.933594 -46.453125 60.714844 -46.671875 C 61.796875 -45.808594 66.980469 -40.835938 69.359375 -36.949219 C 67.414062 -41.269531 64.390625 -44.941406 60.285156 -47.320312 Z M 72.382812 -15.339844 C 72.167969 -13.394531 71.734375 -11.453125 71.304688 -9.722656 C 71.734375 -12.53125 71.519531 -22.472656 72.597656 -23.335938 C 72.816406 -20.742188 72.597656 -17.933594 72.382812 -15.339844 Z M 70.65625 -92.046875 L 70.871094 -92.046875 C 71.085938 -92.046875 71.734375 -91.828125 72.167969 -91.828125 L 69.574219 -91.828125 C 69.789062 -91.828125 70.222656 -92.046875 70.65625 -92.046875 Z M 70.871094 -33.707031 C 70.871094 -34.570312 70.222656 -35.652344 69.359375 -36.949219 C 70.007812 -35.867188 70.4375 -34.789062 70.871094 -33.707031 Z M 25.28125 -44.941406 L 25.496094 -44.941406 C 25.28125 -44.726562 25.28125 -44.726562 25.0625 -44.726562 Z M 57.042969 20.527344 C 57.257812 20.3125 57.472656 20.3125 57.472656 20.09375 C 57.472656 20.3125 57.257812 20.3125 57.042969 20.527344 Z M 57.042969 20.527344 "/></g></g></g><g fill="#5d3e1d" fill-opacity="1"><g transform="translate(838.600809, 236.677497)"><g><path d="M 109.980469 -52.074219 C 109.761719 -56.828125 105.875 -52.722656 104.578125 -50.992188 C 101.769531 -46.886719 99.175781 -42.566406 96.582031 -38.460938 C 90.75 -29.601562 84.914062 -20.742188 78.21875 -12.316406 C 55.960938 15.125 71.519531 -33.707031 69.789062 -33.273438 C 68.925781 -33.058594 68.277344 -29.816406 68.0625 -29.167969 C 69.789062 -36.949219 73.03125 -46.238281 77.136719 -53.800781 C 79.515625 -58.554688 82.324219 -62.445312 78 -67.628906 C 70.007812 -77.351562 60.714844 -68.496094 55.53125 -61.796875 C 53.371094 -70.007812 49.046875 -82.105469 38.460938 -82.105469 C 33.707031 -82.105469 30.898438 -79.730469 27.65625 -76.921875 C 25.710938 -75.625 24.199219 -75.410156 22.472656 -73.894531 C 19.664062 -71.953125 17.71875 -68.925781 15.773438 -66.332031 C 8.425781 -55.53125 3.242188 -41.917969 0.863281 -29.386719 C -0.214844 -23.335938 -0.648438 -16.636719 1.082031 -10.585938 C 2.160156 -7.128906 6.050781 0.648438 11.019531 0 C 11.234375 0 10.804688 -0.214844 10.15625 -0.648438 C 13.179688 0.214844 16.636719 -0.214844 19.230469 -1.945312 C 19.445312 -1.511719 16.851562 -0.433594 16.851562 -0.433594 C 19.230469 3.242188 36.949219 -18.148438 38.246094 -20.09375 C 41.054688 -23.984375 42.996094 -28.089844 45.589844 -32.195312 C 47.535156 -35.21875 50.558594 -39.109375 52.722656 -42.351562 C 52.503906 -40.835938 52.503906 -38.894531 52.503906 -38.894531 C 48.617188 -26.578125 44.941406 -13.179688 50.128906 -0.433594 C 52.503906 6.050781 58.339844 12.101562 65.683594 10.804688 C 72.167969 9.722656 77.570312 3.457031 81.457031 -1.511719 C 86.210938 -7.128906 90.316406 -13.394531 94.421875 -19.878906 C 97.878906 -25.710938 101.121094 -31.546875 103.929688 -38.027344 C 105.65625 -42.132812 110.410156 -47.101562 109.980469 -52.074219 Z M 47.96875 -50.558594 C 46.886719 -49.046875 45.808594 -47.535156 44.941406 -46.023438 L 39.324219 -38.027344 C 35.652344 -32.625 31.761719 -27.441406 27.65625 -22.472656 C 26.578125 -20.957031 21.390625 -14.261719 19.230469 -14.910156 C 15.988281 -15.988281 19.445312 -27.226562 19.878906 -28.953125 C 20.527344 -31.976562 31.976562 -65.253906 35.003906 -65.902344 C 31.113281 -66.117188 18.582031 -27.007812 17.933594 -23.769531 C 19.664062 -34.355469 23.550781 -44.726562 27.871094 -54.449219 C 30.25 -59.417969 35.652344 -72.597656 42.78125 -72.597656 C 46.671875 -72.597656 47.535156 -64.605469 48.183594 -62.011719 C 47.96875 -62.445312 46.023438 -68.710938 45.808594 -68.496094 C 44.726562 -67.628906 49.046875 -55.746094 49.046875 -54.015625 C 49.046875 -52.289062 49.046875 -52.289062 47.96875 -50.558594 Z M 52.9375 -39.972656 C 52.9375 -39.972656 53.585938 -42.996094 53.800781 -43.644531 L 54.882812 -45.160156 Z M 49.695312 -53.371094 L 49.695312 -55.53125 C 50.34375 -54.664062 50.34375 -54.015625 49.695312 -53.371094 Z M 82.539062 -106.523438 C 82.324219 -106.953125 81.890625 -109.761719 81.457031 -110.410156 C 79.945312 -112.789062 77.570312 -113.652344 75.410156 -114.300781 C 75.191406 -114.300781 72.597656 -114.949219 71.519531 -114.734375 C 68.925781 -114.515625 70.007812 -113.4375 69.359375 -112.140625 L 61.363281 -98.3125 C 60.285156 -96.367188 55.960938 -87.722656 58.121094 -86.210938 C 59.417969 -85.132812 62.660156 -87.507812 63.523438 -88.15625 C 67.199219 -90.964844 71.953125 -94.421875 75.191406 -98.097656 C 75.839844 -98.742188 83.835938 -105.875 82.539062 -106.523438 Z M 82.539062 -106.523438 "/></g></g></g><g fill="#5d3e1d" fill-opacity="1"><g transform="translate(932.800655, 236.677497)"><g><path d="M 107.171875 -53.152344 C 106.089844 -53.152344 104.578125 -50.992188 103.929688 -50.34375 C 100.90625 -47.320312 98.3125 -43.863281 95.71875 -40.621094 C 88.589844 -32.410156 81.457031 -23.984375 73.679688 -16.421875 C 71.734375 -14.691406 66.765625 -8.859375 63.957031 -10.804688 C 62.226562 -11.882812 63.742188 -18.796875 63.957031 -20.3125 C 64.390625 -22.253906 68.277344 -32.410156 66.980469 -33.707031 C 66.332031 -34.140625 65.253906 -30.898438 65.035156 -30.683594 C 68.496094 -42.78125 75.410156 -56.609375 81.027344 -68.496094 C 84.265625 -74.976562 88.371094 -82.972656 82.972656 -89.667969 C 73.464844 -101.335938 61.578125 -86.429688 55.097656 -79.515625 C 52.289062 -76.488281 25.0625 -43.214844 25.496094 -42.996094 C 25.496094 -42.996094 27.441406 -45.375 30.25 -48.617188 C 26.144531 -43.214844 22.253906 -37.8125 18.582031 -32.195312 C 20.957031 -41.054688 23.550781 -49.695312 26.359375 -58.339844 C 27.871094 -62.660156 29.167969 -67.199219 30.683594 -71.734375 C 32.410156 -76.488281 33.707031 -78.433594 37.378906 -81.890625 C 43.644531 -87.507812 49.695312 -93.558594 55.3125 -100.039062 C 57.472656 -102.632812 58.988281 -105.65625 61.148438 -108.035156 C 63.09375 -109.980469 65.902344 -111.707031 68.0625 -114.085938 C 79.082031 -127.050781 87.941406 -143.253906 95.285156 -158.378906 C 98.527344 -165.507812 101.554688 -172.855469 103.714844 -180.417969 C 104.144531 -182.148438 108.898438 -202.023438 107.820312 -202.023438 C 107.601562 -202.023438 107.601562 -201.808594 107.386719 -201.378906 C 107.601562 -204.835938 107.386719 -208.722656 106.089844 -212.179688 C 106.304688 -212.179688 107.386719 -208.941406 107.386719 -208.941406 C 108.683594 -209.804688 104.792969 -216.503906 103.929688 -217.367188 C 101.984375 -219.3125 99.175781 -220.390625 96.367188 -220.390625 C 90.75 -220.824219 85.5625 -217.796875 81.242188 -214.558594 C 73.03125 -208.292969 67.199219 -199 61.148438 -190.574219 C 57.691406 -185.820312 54.449219 -181.066406 51.425781 -176.097656 C 49.265625 -172.855469 44.511719 -167.023438 44.511719 -163.132812 C 44.726562 -162.917969 44.941406 -162.917969 44.941406 -162.917969 L 42.351562 -157.945312 C 42.351562 -157.945312 43.644531 -161.835938 43.863281 -162.050781 C 42.78125 -161.402344 41.703125 -156.867188 41.703125 -156.652344 C 33.273438 -140.230469 24.414062 -124.457031 18.582031 -106.953125 C 11.882812 -87.292969 6.914062 -66.980469 3.242188 -46.671875 C 1.511719 -37.378906 -0.648438 -27.226562 0.214844 -17.71875 C 0.214844 -15.125 0.433594 -12.101562 2.375 -9.9375 C 4.753906 -6.914062 9.722656 -5.832031 12.53125 -8.859375 C 13.394531 -9.9375 13.394531 -10.585938 13.828125 -11.667969 L 17.71875 -18.582031 C 22.902344 -26.578125 29.167969 -33.921875 34.140625 -42.132812 C 34.789062 -43.429688 35.433594 -44.941406 36.300781 -46.023438 C 37.378906 -47.320312 37.8125 -46.671875 39.109375 -47.75 C 42.78125 -50.777344 45.589844 -55.3125 48.617188 -58.988281 C 54.882812 -66.765625 61.148438 -75.625 69.140625 -82.105469 L 62.875 -66.980469 L 63.523438 -67.628906 L 60.285156 -60.285156 C 60.066406 -60.5 60.933594 -62.445312 60.933594 -62.660156 C 60.066406 -62.660156 55.960938 -54.234375 55.53125 -53.371094 C 52.9375 -48.183594 50.128906 -42.996094 48.617188 -37.597656 C 47.320312 -32.410156 45.808594 -27.226562 44.292969 -22.039062 C 43.644531 -18.796875 42.996094 -15.558594 43.214844 -12.316406 C 43.214844 -11.453125 44.941406 -3.671875 45.589844 -4.320312 L 45.589844 -5.1875 C 46.023438 -3.890625 46.453125 -2.808594 47.101562 -1.730469 L 45.808594 -3.671875 C 45.160156 -2.160156 50.992188 2.808594 51.640625 3.457031 C 54.882812 6.699219 58.121094 8.859375 63.09375 9.074219 C 67.199219 9.289062 69.359375 7.777344 72.382812 4.96875 C 80.59375 -3.023438 86.429688 -14.042969 92.695312 -23.550781 C 96.152344 -28.519531 99.609375 -33.707031 102.847656 -38.894531 C 103.714844 -39.972656 109.546875 -52.074219 108.683594 -51.855469 C 109.980469 -52.074219 107.601562 -53.152344 107.171875 -53.152344 Z M 88.371094 -198.566406 L 88.371094 -198.785156 C 88.371094 -198.785156 88.589844 -198.785156 88.589844 -199 L 88.589844 -198.785156 C 88.804688 -199.214844 89.019531 -199.648438 88.804688 -199.433594 C 90.535156 -202.023438 94.855469 -209.804688 97.878906 -207.210938 C 100.90625 -204.617188 98.097656 -195.542969 97.230469 -192.300781 C 95.503906 -185.605469 92.910156 -179.121094 90.316406 -172.855469 C 85.132812 -160.757812 78.648438 -149.304688 71.519531 -138.070312 C 68.0625 -132.667969 64.390625 -127.265625 60.714844 -122.078125 C 58.769531 -119.488281 56.828125 -116.894531 54.664062 -114.300781 L 52.9375 -112.355469 L 56.828125 -116.246094 L 65.46875 -128.34375 C 70.222656 -134.828125 74.761719 -141.957031 79.082031 -149.089844 C 68.0625 -129.640625 54.664062 -111.277344 39.109375 -94.855469 L 45.589844 -111.925781 C 46.238281 -113.21875 50.777344 -125.96875 50.777344 -125.96875 C 50.34375 -125.753906 49.695312 -124.671875 49.046875 -123.59375 C 54.234375 -135.476562 60.933594 -147.792969 66.980469 -159.675781 C 73.679688 -172.640625 80.378906 -186.035156 88.15625 -198.351562 C 88.15625 -198.351562 88.371094 -198.351562 88.371094 -198.566406 Z M 34.140625 -92.695312 C 36.082031 -104.363281 41.484375 -115.382812 45.375 -126.617188 C 48.832031 -136.125 54.449219 -144.765625 58.769531 -153.839844 C 60.714844 -158.164062 81.457031 -197.703125 81.890625 -197.488281 C 83.617188 -196.40625 57.042969 -145.632812 54.234375 -139.582031 C 51.855469 -135.042969 49.695312 -130.722656 47.96875 -125.753906 C 46.453125 -121 43.863281 -117.109375 42.132812 -112.574219 C 41.269531 -110.410156 32.625 -87.722656 33.273438 -87.507812 C 32.84375 -87.507812 33.707031 -90.964844 33.921875 -92.046875 Z M 49.046875 -107.820312 C 49.480469 -108.25 49.914062 -109.117188 50.558594 -109.761719 C 49.914062 -109.117188 49.480469 -108.46875 49.046875 -107.820312 Z M 88.371094 -198.566406 L 88.371094 -198.785156 L 88.589844 -198.785156 Z M 34.140625 -92.476562 C 34.140625 -92.261719 33.921875 -92.046875 33.921875 -92.046875 C 33.921875 -92.261719 34.140625 -92.261719 34.140625 -92.476562 Z M 34.140625 -92.476562 "/></g></g></g><g fill="#5d3e1d" fill-opacity="1"><g transform="translate(1025.920203, 236.677497)"><g><path d="M 88.589844 -52.503906 C 87.292969 -58.121094 82.105469 -50.558594 81.027344 -49.265625 L 69.140625 -33.273438 L 57.472656 -17.933594 L 51.207031 -9.9375 C 50.558594 -9.074219 45.808594 -3.023438 46.238281 -3.023438 C 46.671875 -3.457031 47.320312 -3.457031 47.96875 -4.105469 C 44.726562 -0.648438 32.84375 10.15625 30.683594 7.5625 C 28.953125 5.402344 33.707031 -3.671875 34.355469 -5.832031 C 36.730469 -12.101562 38.894531 -18.582031 41.484375 -24.632812 C 44.292969 -30.898438 47.535156 -37.164062 50.128906 -43.429688 C 52.722656 -50.128906 48.832031 -52.503906 42.566406 -54.015625 C 39.757812 -54.664062 36.300781 -54.664062 33.058594 -55.097656 C 33.058594 -54.882812 33.273438 -54.882812 33.273438 -54.882812 C 36.082031 -54.449219 40.1875 -54.234375 43.644531 -53.152344 C 38.460938 -54.664062 31.976562 -54.015625 27.871094 -55.097656 C 25.0625 -55.746094 23.335938 -55.746094 23.769531 -58.988281 C 24.199219 -63.308594 28.738281 -67.847656 30.25 -71.953125 C 30.25 -71.734375 28.738281 -67.847656 28.953125 -67.847656 C 30.035156 -67.414062 31.761719 -73.464844 31.761719 -74.328125 C 31.546875 -75.410156 28.953125 -78.648438 28.738281 -77.351562 L 29.167969 -76.703125 C 18.796875 -83.835938 6.480469 -69.140625 8.644531 -58.554688 C 9.074219 -57.042969 9.9375 -56.179688 10.585938 -54.449219 C 11.019531 -53.152344 10.585938 -51.640625 11.882812 -49.914062 C 16.421875 -44.292969 24.632812 -44.078125 31.113281 -45.375 C 30.035156 -43.863281 18.582031 -19.664062 19.230469 -19.445312 L 17.71875 -14.042969 C 17.5 -14.261719 18.367188 -15.988281 17.933594 -15.988281 C 16.421875 -16.207031 13.394531 -3.671875 13.179688 -2.59375 C 12.316406 2.59375 12.53125 7.128906 14.691406 11.882812 C 15.988281 14.910156 17.5 17.5 20.3125 19.230469 C 22.902344 20.957031 26.144531 21.824219 29.167969 21.175781 C 30.25 20.742188 34.355469 17.933594 33.273438 18.148438 L 34.789062 17.5 C 34.570312 17.71875 34.355469 17.933594 34.355469 18.148438 C 35.003906 18.367188 44.941406 10.371094 46.238281 9.507812 C 53.152344 3.671875 58.769531 -3.457031 63.957031 -10.585938 C 69.140625 -17.933594 74.542969 -25.28125 79.515625 -32.625 C 81.890625 -36.082031 84.050781 -39.539062 85.78125 -43.214844 C 87.078125 -45.808594 89.238281 -49.480469 88.589844 -52.503906 Z M 23.984375 -26.578125 C 25.496094 -30.464844 27.226562 -34.140625 29.167969 -37.8125 C 29.601562 -38.460938 32.625 -46.238281 34.140625 -46.671875 C 33.058594 -46.023438 28.519531 -35.433594 27.441406 -33.492188 L 23.335938 -23.984375 C 21.175781 -18.796875 18.796875 -13.394531 17.285156 -7.777344 C 18.796875 -14.261719 21.390625 -20.527344 23.984375 -26.578125 Z M 18.796875 14.910156 C 20.09375 16.636719 21.824219 18.367188 24.199219 19.230469 C 22.253906 18.582031 20.527344 17.5 19.230469 16.207031 C 19.445312 16.207031 19.445312 16.421875 19.445312 16.636719 C 18.148438 14.910156 16.421875 11.234375 16.207031 10.585938 C 15.558594 7.996094 15.339844 4.96875 15.558594 2.375 C 15.558594 0.214844 15.773438 -1.511719 16.207031 -3.457031 L 16.207031 -3.242188 C 15.773438 -0.433594 15.558594 2.375 15.773438 5.402344 L 15.773438 6.480469 C 15.558594 6.265625 15.558594 6.050781 15.558594 6.050781 C 15.558594 6.050781 15.558594 6.265625 15.773438 6.699219 L 15.773438 6.914062 L 16.636719 11.453125 L 15.988281 8.644531 C 16.421875 9.9375 17.5 12.316406 18.582031 14.691406 L 18.367188 14.476562 C 18.367188 14.691406 18.582031 14.910156 18.796875 15.125 Z M 24.847656 -56.394531 C 25.929688 -55.53125 27.871094 -55.3125 29.816406 -55.097656 C 28.089844 -55.3125 26.578125 -55.746094 25.496094 -56.609375 C 25.496094 -56.609375 24.199219 -57.691406 23.984375 -58.121094 C 23.984375 -57.691406 24.414062 -56.609375 24.847656 -56.394531 Z M 47.535156 -39.539062 L 42.996094 -30.035156 L 47.535156 -39.757812 Z M 16.421875 -4.105469 C 16.421875 -3.890625 16.207031 -3.671875 16.207031 -3.457031 L 16.207031 -3.671875 C 16.207031 -3.890625 16.421875 -3.890625 16.421875 -4.105469 Z M 47.75 -40.1875 L 47.75 -39.972656 L 47.535156 -39.972656 Z M 47.75 -40.1875 L 47.75 -39.972656 L 47.535156 -39.972656 Z M 16.636719 -6.914062 C 16.636719 -7.128906 16.851562 -7.347656 16.851562 -7.777344 C 16.851562 -7.347656 16.636719 -7.128906 16.636719 -6.914062 Z M 17.5 12.964844 C 17.5 12.964844 17.71875 13.179688 17.71875 13.394531 C 17.71875 13.179688 17.5 13.179688 17.5 12.964844 Z M 24.199219 -58.554688 C 23.984375 -58.554688 23.984375 -58.339844 23.984375 -58.339844 Z M 24.199219 -58.554688 "/></g></g></g><g fill="#5d3e1d" fill-opacity="1"><g transform="translate(1098.730633, 236.677497)"><g><path d="M 109.980469 -52.074219 C 109.761719 -56.828125 105.875 -52.722656 104.578125 -50.992188 C 101.769531 -46.886719 99.175781 -42.566406 96.582031 -38.460938 C 90.75 -29.601562 84.914062 -20.742188 78.21875 -12.316406 C 55.960938 15.125 71.519531 -33.707031 69.789062 -33.273438 C 68.925781 -33.058594 68.277344 -29.816406 68.0625 -29.167969 C 69.789062 -36.949219 73.03125 -46.238281 77.136719 -53.800781 C 79.515625 -58.554688 82.324219 -62.445312 78 -67.628906 C 70.007812 -77.351562 60.714844 -68.496094 55.53125 -61.796875 C 53.371094 -70.007812 49.046875 -82.105469 38.460938 -82.105469 C 33.707031 -82.105469 30.898438 -79.730469 27.65625 -76.921875 C 25.710938 -75.625 24.199219 -75.410156 22.472656 -73.894531 C 19.664062 -71.953125 17.71875 -68.925781 15.773438 -66.332031 C 8.425781 -55.53125 3.242188 -41.917969 0.863281 -29.386719 C -0.214844 -23.335938 -0.648438 -16.636719 1.082031 -10.585938 C 2.160156 -7.128906 6.050781 0.648438 11.019531 0 C 11.234375 0 10.804688 -0.214844 10.15625 -0.648438 C 13.179688 0.214844 16.636719 -0.214844 19.230469 -1.945312 C 19.445312 -1.511719 16.851562 -0.433594 16.851562 -0.433594 C 19.230469 3.242188 36.949219 -18.148438 38.246094 -20.09375 C 41.054688 -23.984375 42.996094 -28.089844 45.589844 -32.195312 C 47.535156 -35.21875 50.558594 -39.109375 52.722656 -42.351562 C 52.503906 -40.835938 52.503906 -38.894531 52.503906 -38.894531 C 48.617188 -26.578125 44.941406 -13.179688 50.128906 -0.433594 C 52.503906 6.050781 58.339844 12.101562 65.683594 10.804688 C 72.167969 9.722656 77.570312 3.457031 81.457031 -1.511719 C 86.210938 -7.128906 90.316406 -13.394531 94.421875 -19.878906 C 97.878906 -25.710938 101.121094 -31.546875 103.929688 -38.027344 C 105.65625 -42.132812 110.410156 -47.101562 109.980469 -52.074219 Z M 47.96875 -50.558594 C 46.886719 -49.046875 45.808594 -47.535156 44.941406 -46.023438 L 39.324219 -38.027344 C 35.652344 -32.625 31.761719 -27.441406 27.65625 -22.472656 C 26.578125 -20.957031 21.390625 -14.261719 19.230469 -14.910156 C 15.988281 -15.988281 19.445312 -27.226562 19.878906 -28.953125 C 20.527344 -31.976562 31.976562 -65.253906 35.003906 -65.902344 C 31.113281 -66.117188 18.582031 -27.007812 17.933594 -23.769531 C 19.664062 -34.355469 23.550781 -44.726562 27.871094 -54.449219 C 30.25 -59.417969 35.652344 -72.597656 42.78125 -72.597656 C 46.671875 -72.597656 47.535156 -64.605469 48.183594 -62.011719 C 47.96875 -62.445312 46.023438 -68.710938 45.808594 -68.496094 C 44.726562 -67.628906 49.046875 -55.746094 49.046875 -54.015625 C 49.046875 -52.289062 49.046875 -52.289062 47.96875 -50.558594 Z M 52.9375 -39.972656 C 52.9375 -39.972656 53.585938 -42.996094 53.800781 -43.644531 L 54.882812 -45.160156 Z M 49.695312 -53.371094 L 49.695312 -55.53125 C 50.34375 -54.664062 50.34375 -54.015625 49.695312 -53.371094 Z M 49.695312 -53.371094 "/></g></g></g><g fill="#5d3e1d" fill-opacity="1"><g transform="translate(1192.930412, 236.677497)"><g><path d="M 127.699219 -52.722656 L 127.699219 -52.9375 C 126.402344 -60.066406 116.679688 -48.183594 115.382812 -47.101562 C 109.117188 -40.1875 103.28125 -32.625 97.664062 -25.0625 C 92.046875 -17.285156 86.644531 -9.507812 80.808594 -1.730469 C 78 2.160156 75.191406 5.832031 71.953125 9.289062 C 70.871094 10.585938 68.277344 14.261719 66.332031 14.261719 C 58.769531 14.261719 64.605469 -16.207031 65.46875 -20.957031 C 66.765625 -29.386719 67.414062 -40.621094 72.816406 -47.320312 C 74.113281 -49.046875 88.804688 -67.847656 88.804688 -67.847656 C 88.371094 -68.0625 86.644531 -65.902344 85.5625 -64.605469 L 94.855469 -77.136719 L 95.503906 -78 L 95.71875 -78 L 95.503906 -78 L 97.230469 -80.378906 C 97.449219 -80.160156 97.230469 -79.730469 97.015625 -79.296875 L 98.960938 -81.457031 L 104.578125 -88.804688 C 108.683594 -94.636719 112.574219 -100.90625 116.246094 -106.953125 C 122.078125 -116.894531 130.074219 -131.15625 125.753906 -143.253906 C 122.511719 -152.113281 110.628906 -153.839844 102.632812 -150.816406 C 96.800781 -148.65625 91.828125 -144.117188 87.722656 -139.363281 C 85.5625 -136.554688 83.402344 -133.53125 81.457031 -130.289062 C 80.808594 -129.425781 78 -122.511719 77.351562 -121.648438 L 77.570312 -121.648438 C 76.273438 -119.269531 74.976562 -116.894531 74.113281 -114.515625 C 74.542969 -116.246094 75.625 -119.703125 76.488281 -120.351562 C 74.761719 -119.054688 73.246094 -112.789062 72.816406 -112.140625 C 64.605469 -94.207031 57.472656 -76.054688 52.289062 -57.042969 C 46.453125 -63.742188 37.164062 -75.191406 27.007812 -71.085938 C 18.582031 -67.628906 12.316406 -58.769531 7.996094 -50.992188 C 4.105469 -44.078125 3.023438 -36.949219 0.214844 -30.25 C -4.753906 -18.796875 -7.128906 4.753906 9.722656 8.210938 C 14.910156 9.289062 19.664062 6.050781 23.769531 3.242188 C 31.113281 -2.160156 38.027344 -8.425781 44.511719 -14.910156 C 43.429688 -3.457031 41.054688 13.828125 50.34375 22.902344 C 61.796875 34.570312 73.246094 18.796875 80.160156 10.15625 C 89.019531 -1.082031 95.933594 -13.613281 104.792969 -24.414062 C 109.117188 -29.601562 113.4375 -34.789062 117.972656 -39.539062 C 121.429688 -42.996094 128.34375 -47.320312 127.699219 -52.722656 Z M 48.183594 -38.460938 C 47.96875 -37.8125 47.96875 -37.378906 47.96875 -37.378906 C 47.101562 -32.195312 47.101562 -27.65625 43.429688 -23.984375 C 40.1875 -20.527344 36.730469 -17.285156 33.273438 -14.042969 C 30.035156 -11.019531 22.253906 -2.160156 17.285156 -2.59375 C 11.234375 -3.242188 15.773438 -17.070312 18.796875 -25.496094 C 15.558594 -16.851562 10.371094 -2.808594 17.5 -2.375 C 19.445312 -2.160156 22.6875 -3.890625 25.496094 -6.265625 C 22.902344 -3.890625 18.582031 -0.648438 15.988281 -1.945312 C 11.019531 -4.105469 15.339844 -16.421875 16.207031 -19.878906 C 19.015625 -29.816406 23.121094 -39.324219 27.871094 -48.398438 C 30.25 -52.9375 33.707031 -60.285156 38.246094 -60.714844 L 37.164062 -60.066406 C 37.378906 -60.285156 37.597656 -60.285156 37.8125 -60.285156 C 39.324219 -60.714844 40.835938 -59.636719 41.917969 -58.769531 C 44.726562 -56.828125 46.453125 -53.152344 48.398438 -50.34375 C 50.558594 -46.886719 49.046875 -43.214844 48.183594 -39.324219 Z M 82.972656 -88.371094 C 82.972656 -88.589844 82.972656 -89.019531 83.1875 -89.238281 L 83.1875 -89.453125 C 83.402344 -90.101562 83.617188 -90.316406 83.617188 -90.316406 L 83.617188 -90.535156 C 88.589844 -104.363281 93.992188 -118.191406 101.769531 -130.722656 C 103.714844 -133.964844 109.332031 -143.902344 114.300781 -141.09375 C 116.246094 -140.011719 116.679688 -137.203125 116.679688 -135.261719 C 117.542969 -122.296875 107.171875 -106.953125 100.6875 -96.582031 C 93.125 -84.484375 84.699219 -72.597656 75.839844 -61.578125 L 80.59375 -66.550781 L 84.914062 -71.953125 L 73.894531 -57.691406 L 72.382812 -55.746094 L 71.519531 -54.882812 C 71.734375 -56.179688 72.816406 -57.472656 73.894531 -58.988281 C 73.464844 -58.554688 73.03125 -58.121094 72.816406 -57.691406 C 75.625 -66.980469 78.648438 -76.273438 81.890625 -85.5625 C 81.675781 -85.347656 81.890625 -85.78125 82.105469 -86.644531 L 82.753906 -87.722656 C 82.753906 -87.941406 82.753906 -88.15625 82.972656 -88.371094 Z M 64.820312 -70.65625 C 64.390625 -69.574219 63.09375 -64.605469 62.445312 -63.957031 C 62.445312 -63.742188 62.226562 -63.523438 62.011719 -63.523438 C 63.742188 -65.683594 62.660156 -68.496094 63.523438 -71.085938 C 63.957031 -72.382812 66.117188 -74.761719 66.550781 -76.488281 C 66.550781 -74.761719 65.46875 -71.734375 64.820312 -70.65625 Z M 30.464844 -10.804688 C 35.867188 -15.558594 41.054688 -20.527344 46.023438 -25.710938 C 45.589844 -22.902344 38.894531 -18.148438 36.515625 -15.988281 C 33.707031 -13.179688 30.464844 -10.371094 27.226562 -7.777344 L 27.007812 -7.777344 Z M 68.710938 -90.316406 C 67.847656 -87.722656 66.765625 -85.347656 65.46875 -82.972656 C 66.550781 -86.210938 67.199219 -89.453125 68.710938 -92.476562 C 70.007812 -94.855469 71.519531 -97.878906 72.597656 -100.6875 C 71.519531 -97.230469 69.789062 -93.558594 68.710938 -90.316406 Z M 82.753906 -87.722656 L 81.890625 -85.5625 C 81.890625 -85.78125 82.105469 -86.210938 82.105469 -86.644531 Z M 36.082031 -59.203125 C 35.21875 -58.554688 34.570312 -57.691406 34.355469 -57.691406 C 34.789062 -57.691406 35.433594 -58.554688 36.082031 -59.203125 Z M 42.132812 -59.636719 C 42.566406 -59.417969 42.996094 -59.203125 43.429688 -58.769531 Z M 84.914062 -63.523438 C 84.914062 -63.742188 85.132812 -63.957031 85.347656 -64.171875 C 85.132812 -63.742188 84.914062 -63.523438 84.914062 -63.523438 Z M 85.347656 -64.171875 L 85.5625 -64.605469 C 85.5625 -64.390625 85.347656 -64.171875 85.347656 -64.171875 Z M 85.347656 -64.171875 "/></g></g></g><g fill="#5d3e1d" fill-opacity="1"><g transform="translate(1304.846701, 236.677497)"><g><path d="M 125.96875 -51.640625 C 125.320312 -58.554688 118.621094 -51.855469 116.460938 -49.914062 C 112.789062 -46.886719 108.898438 -44.292969 105.226562 -41.269531 C 94.636719 -33.273438 84.699219 -24.847656 74.761719 -16.421875 C 78.867188 -28.089844 84.914062 -39.757812 91.398438 -50.34375 C 92.695312 -52.503906 93.773438 -54.449219 93.34375 -57.042969 C 92.261719 -62.875 84.484375 -65.253906 79.296875 -64.390625 C 74.761719 -63.523438 74.328125 -61.363281 73.464844 -58.339844 C 71.734375 -52.9375 65.46875 -48.183594 61.796875 -44.078125 C 60.285156 -42.351562 50.128906 -30.035156 49.914062 -30.035156 C 50.558594 -30.035156 50.992188 -30.464844 51.425781 -30.683594 C 46.671875 -25.710938 39.324219 -20.527344 33.492188 -15.988281 C 31.113281 -14.042969 24.199219 -7.128906 20.527344 -8.425781 C 10.15625 -11.667969 31.546875 -53.152344 30.898438 -53.371094 C 30.25 -53.585938 23.335938 -36.515625 21.824219 -32.625 C 25.28125 -43.214844 29.816406 -53.585938 34.570312 -63.523438 C 34.355469 -62.660156 33.707031 -60.933594 34.140625 -60.933594 C 34.789062 -60.714844 38.027344 -67.847656 37.378906 -68.0625 C 37.164062 -68.0625 36.949219 -67.847656 36.730469 -67.847656 C 37.378906 -68.710938 38.460938 -69.140625 38.894531 -70.4375 C 39.539062 -73.246094 36.300781 -76.273438 33.921875 -77.136719 C 28.738281 -79.296875 22.6875 -76.273438 20.3125 -71.304688 C 19.664062 -70.4375 19.015625 -68.925781 18.582031 -68.496094 C 17.933594 -67.199219 16.851562 -66.765625 15.988281 -65.46875 C 13.613281 -61.363281 12.316406 -56.609375 10.585938 -52.289062 C 9.9375 -50.34375 2.375 -28.738281 3.457031 -28.519531 L 3.890625 -28.953125 C 3.457031 -27.441406 3.242188 -25.710938 3.023438 -24.199219 C 2.59375 -24.414062 3.242188 -25.710938 2.808594 -25.710938 C 0.648438 -25.929688 -0.214844 -12.101562 0 -10.585938 C 0.433594 -6.265625 3.242188 -0.863281 7.347656 1.296875 C 9.289062 2.375 11.882812 2.808594 14.261719 2.375 C 15.125 2.375 19.230469 0.648438 17.71875 0.648438 L 19.015625 0.214844 L 18.582031 0.648438 C 18.796875 0.863281 26.578125 -2.59375 27.871094 -3.023438 C 34.140625 -5.617188 39.539062 -10.585938 44.078125 -15.339844 L 58.339844 -29.601562 C 61.578125 -32.84375 64.390625 -37.8125 67.847656 -40.40625 C 65.902344 -34.355469 63.957031 -28.304688 62.226562 -22.253906 C 59.851562 -15.125 58.554688 -6.265625 55.097656 0.214844 C 52.289062 5.402344 45.160156 10.15625 41.054688 14.261719 C 35.21875 19.664062 29.386719 25.0625 23.984375 30.683594 C 16.421875 38.675781 9.722656 47.75 3.023438 56.609375 C -3.890625 65.902344 -13.394531 79.082031 -4.753906 90.316406 C 1.082031 98.3125 11.882812 103.28125 21.605469 100.6875 C 30.464844 98.527344 33.921875 91.179688 38.246094 84.265625 C 52.074219 61.363281 59.636719 34.789062 67.628906 9.507812 C 68.925781 5.832031 69.789062 -0.648438 71.953125 -3.671875 C 74.113281 -6.699219 78.433594 -9.289062 81.027344 -11.667969 C 87.507812 -17.5 94.207031 -23.121094 100.90625 -28.519531 L 119.703125 -43.429688 C 122.511719 -45.589844 126.402344 -47.535156 125.96875 -51.640625 Z M 33.058594 60.5 L 33.058594 60.714844 L 32.195312 62.445312 L 32.195312 62.660156 C 31.976562 62.660156 31.976562 62.875 31.976562 62.875 C 31.976562 63.09375 31.761719 63.523438 31.761719 63.523438 C 29.601562 68.496094 27.007812 73.464844 24.199219 78.21875 C 21.824219 82.105469 18.582031 88.371094 14.042969 89.886719 C 5.402344 92.910156 4.753906 78.648438 6.050781 73.894531 C 9.289062 62.226562 17.933594 52.074219 25.28125 42.78125 C 32.84375 33.058594 40.835938 24.199219 49.914062 15.773438 C 44.726562 30.683594 39.539062 45.808594 33.058594 60.5 Z M 45.589844 57.472656 C 46.453125 54.882812 47.96875 52.074219 49.480469 49.480469 C 48.183594 53.371094 47.101562 57.257812 44.726562 61.148438 L 42.78125 64.605469 C 43.644531 62.226562 44.511719 59.636719 45.589844 57.472656 Z M 52.9375 33.921875 L 49.046875 43.429688 C 49.480469 41.484375 49.914062 39.324219 50.777344 38.027344 C 51.640625 36.082031 53.371094 32.625 52.9375 30.25 C 53.152344 31.332031 53.371094 32.84375 52.9375 33.921875 Z M 46.023438 52.289062 L 46.886719 50.992188 C 46.671875 51.425781 46.453125 51.855469 46.023438 52.289062 Z M 46.023438 52.289062 "/></g></g></g><g fill="#5d3e1d" fill-opacity="1"><g transform="translate(1415.030367, 236.677497)"><g/></g></g></svg>